<svg id="img" xmlns="http://www.w3.org/2000/svg"  viewBox="0 0 50 50" width="50px" height="50px"><path d="M 8 2 L 8 48 L 44 48 L 44 15.410156 L 30.691406 2.492188 C 30.363281 2.175781 29.925781 2 29.46875 2 Z M 10 4 L 29 4 L 29 15.199219 C 29 16.152344 29.804688 16.917969 30.738281 16.917969 L 42 16.917969 L 42 46 L 10 46 Z M 31 5.578125 L 40.621094 14.917969 L 31 14.917969 Z M 33.832031 23 C 31.867188 23 29.753906 24.484375 29.753906 28.296875 C 29.753906 31.160156 30.984375 33.289063 33.5625 33.289063 C 34.253906 33.289063 34.8125 33.1875 35.09375 33.050781 L 34.898438 31.402344 C 34.660156 31.476563 34.28125 31.550781 33.953125 31.550781 C 32.753906 31.550781 31.839844 30.605469 31.839844 28.1875 C 31.839844 25.683594 32.84375 24.722656 33.953125 24.722656 C 34.390625 24.722656 34.644531 24.816406 34.871094 24.921875 L 35.199219 23.269531 C 35.003906 23.132813 34.523438 23 33.832031 23 Z M 25.0625 23.089844 L 22.871094 33.199219 L 24.777344 33.199219 L 25.222656 30.890625 L 27.039063 30.890625 L 27.472656 33.199219 L 29.378906 33.199219 L 27.414063 23.089844 Z M 18.1875 23.09375 L 16 33.199219 L 17.90625 33.199219 L 18.355469 30.890625 L 20.171875 30.890625 L 20.605469 33.199219 L 22.511719 33.199219 L 20.546875 23.09375 Z M 19.28125 24.949219 L 19.328125 24.949219 C 19.417969 25.625 19.554688 26.628906 19.65625 27.246094 L 19.988281 29.359375 L 18.550781 29.359375 L 18.925781 27.261719 C 19.03125 26.675781 19.179688 25.625 19.28125 24.949219 Z M 26.15625 24.949219 L 26.199219 24.949219 C 26.289063 25.625 26.425781 26.628906 26.53125 27.246094 L 26.859375 29.359375 L 25.421875 29.359375 L 25.796875 27.261719 C 25.898438 26.675781 26.050781 25.625 26.15625 24.949219 Z"/></svg>