<svg id="img" xmlns="http://www.w3.org/2000/svg"  viewBox="0 0 50 50" width="50px" height="50px"><path d="M 12 2 C 8.699219 2 6 4.699219 6 8 L 6 42.417969 C 6 45.59375 8.832031 48 12 48 L 44 48 L 44 46 L 12 46 C 9.839844 46 8 44.378906 8 42.417969 C 8 40.457031 9.800781 39 12 39 L 44 39 L 44 2 Z M 12 4 L 42 4 L 42 37 L 12 37 C 10.507813 37 9.09375 37.539063 8 38.417969 L 8 8 C 8 5.78125 9.78125 4 12 4 Z M 19.300781 15 C 17.300781 15 15 16.597656 15 21.199219 C 15 24.898438 16.5 27.097656 19.097656 27.097656 C 19.800781 27.097656 20.5 27 20.902344 26.800781 L 21.097656 26.699219 L 20.800781 25.097656 L 20.5 25.300781 C 20.398438 25.402344 19.902344 25.5 19.402344 25.5 C 17.800781 25.5 16.902344 23.898438 16.902344 21.097656 C 16.902344 17.800781 18.199219 16.699219 19.300781 16.699219 C 19.800781 16.699219 20.101563 16.800781 20.300781 16.902344 L 20.597656 17 L 21 15.402344 L 20.902344 15.300781 C 20.601563 15.101563 20 15 19.300781 15 Z M 33.097656 15 C 32.398438 15 31.699219 15.097656 31.199219 15.199219 L 31 15.300781 L 31 27 L 32.800781 27 L 32.800781 22 L 33.097656 22 C 33.898438 22 34.5 22.300781 34.699219 23.902344 C 35 25.5 35.199219 26.5 35.300781 26.800781 L 35.402344 26.902344 L 37.300781 26.902344 L 37 26.699219 C 36.898438 26.5 36.699219 25.800781 36.402344 23.902344 C 36.199219 22.5 35.800781 21.699219 35.199219 21.300781 C 36.199219 20.699219 36.800781 19.699219 36.800781 18.300781 C 36.800781 17.300781 36.5 16.5 35.902344 15.902344 C 35.300781 15.300781 34.398438 15 33.097656 15 Z M 25.097656 15.097656 C 24.398438 15.097656 23.699219 15.199219 23.097656 15.300781 L 22.902344 15.300781 L 22.902344 26.902344 L 23.097656 26.902344 C 23.5 27 24.101563 27 24.800781 27 C 26.300781 27 27.398438 26.601563 28 25.902344 C 28.601563 25.300781 28.902344 24.398438 28.902344 23.5 C 29 22.199219 28.300781 21.097656 27.199219 20.597656 C 28.097656 20.097656 28.597656 19.199219 28.597656 18.097656 C 28.597656 17.199219 28.300781 16.5 27.800781 16 C 27.199219 15.398438 26.300781 15.097656 25.097656 15.097656 Z M 24.800781 16.597656 L 25.199219 16.597656 C 26.300781 16.597656 26.800781 17.097656 26.800781 18.199219 C 26.800781 19.199219 26.097656 20 25.097656 20 L 24.800781 20 Z M 33.515625 16.695313 C 34.417969 16.761719 34.800781 17.363281 34.800781 18.5 C 34.800781 19.699219 34.101563 20.5 33 20.5 L 32.699219 20.5 L 32.699219 16.699219 L 33.097656 16.699219 C 33.25 16.6875 33.390625 16.6875 33.515625 16.695313 Z M 24.699219 21.5 L 25 21.5 C 26 21.5 27.097656 22.097656 27.097656 23.597656 C 27.097656 24.898438 26.398438 25.597656 25.097656 25.597656 L 24.699219 25.597656 Z"/></svg>