<svg id="img" xmlns="http://www.w3.org/2000/svg"  viewBox="0 0 50 50" width="50px" height="50px"><path d="M 12 2 C 8.699219 2 6 4.699219 6 8 L 6 42.417969 C 6 45.59375 8.832031 48 12 48 L 44 48 L 44 46 L 12 46 C 9.839844 46 8 44.378906 8 42.417969 C 8 40.457031 9.800781 39 12 39 L 44 39 L 44 2 Z M 12 4 L 42 4 L 42 37 L 12 37 C 10.507813 37 9.09375 37.539063 8 38.417969 L 8 8 C 8 5.78125 9.78125 4 12 4 Z M 19.300781 14.902344 C 17.300781 14.902344 15 16.5 15 21.097656 C 15 24.800781 16.5 27 19.097656 27 C 19.800781 27 20.5 26.898438 20.902344 26.699219 L 21.097656 26.597656 L 20.800781 25 L 20.5 25.199219 C 20.398438 25.300781 19.902344 25.402344 19.402344 25.402344 C 17.800781 25.402344 16.902344 23.800781 16.902344 21 C 16.902344 17.699219 18.199219 16.597656 19.300781 16.597656 C 19.800781 16.597656 20.101563 16.699219 20.300781 16.800781 L 20.597656 16.902344 L 21 15.300781 L 20.902344 15.199219 C 20.601563 15 20 14.902344 19.300781 14.902344 Z M 25.597656 15 C 24.898438 15 24.199219 15.097656 23.597656 15.199219 L 23.402344 15.199219 L 23.402344 26.800781 L 23.597656 26.800781 C 24 26.902344 24.601563 26.902344 25.300781 26.902344 C 26.800781 26.902344 27.898438 26.5 28.5 25.800781 C 29.101563 25.199219 29.402344 24.300781 29.402344 23.402344 C 29.5 22.101563 28.800781 21 27.699219 20.5 C 28.597656 20 29.097656 19.101563 29.097656 18 C 29.097656 17.101563 28.800781 16.402344 28.300781 15.902344 C 27.699219 15.300781 26.800781 15 25.597656 15 Z M 31.300781 15 L 31.300781 16.597656 L 34.800781 16.597656 L 31 25.902344 L 31 27 L 36.902344 27 L 36.902344 25.402344 L 33.097656 25.402344 L 36.902344 16.300781 L 36.902344 15 Z M 25.300781 16.5 L 25.699219 16.5 C 26.800781 16.5 27.300781 17 27.300781 18.097656 C 27.300781 19.097656 26.5 19.902344 25.597656 19.902344 L 25.300781 19.902344 Z M 25.199219 21.402344 L 25.5 21.402344 C 26.5 21.402344 27.597656 22 27.597656 23.5 C 27.597656 24.800781 26.898438 25.5 25.597656 25.5 L 25.199219 25.5 Z"/></svg>