<svg id="img" xmlns="http://www.w3.org/2000/svg"  viewBox="0 0 50 50" width="50px" height="50px"><path d="M 12 2 C 8.699219 2 6 4.699219 6 8 L 6 42.417969 C 6 45.59375 8.832031 48 12 48 L 44 48 L 44 46 L 12 46 C 9.839844 46 8 44.378906 8 42.417969 C 8 40.457031 9.800781 39 12 39 L 44 39 L 44 2 Z M 12 4 L 42 4 L 42 37 L 12 37 C 10.507813 37 9.09375 37.539063 8 38.417969 L 8 8 C 8 5.78125 9.78125 4 12 4 Z M 35.378906 14 C 34.484375 14 33.671875 14.085938 33.039063 14.230469 C 33.039063 14.230469 33.039063 25.875 33.039063 25.875 C 33.496094 25.945313 34.128906 26 35.011719 26 C 36.714844 26 37.878906 25.632813 38.5625 24.859375 C 39.109375 24.277344 39.425781 23.5 39.425781 22.515625 C 39.425781 21.09375 38.652344 19.964844 37.296875 19.59375 L 37.296875 19.542969 C 38.441406 19.050781 39.039063 18.046875 39.039063 16.9375 C 39.039063 16.09375 38.777344 15.335938 38.195313 14.828125 C 37.472656 14.175781 36.453125 14 35.378906 14 Z M 12 14.050781 L 12 26.050781 L 17 26.050781 L 17 24.394531 L 14 24.394531 L 14 20.589844 L 16.753906 20.589844 L 16.753906 19.003906 L 14 19.003906 L 14 15.707031 L 17 15.707031 L 17 14.050781 Z M 20 14.050781 C 19.167969 14.050781 18.605469 14.140625 18 14.28125 L 18 26.050781 L 20 26.050781 L 20 21.390625 C 20.175781 21.410156 20 21.40625 20.191406 21.40625 C 21.207031 21.40625 22.355469 21 23.066406 20.167969 C 23.617188 19.53125 23.953125 18.714844 23.953125 17.511719 C 23.953125 16.484375 23.632813 15.558594 22.996094 14.957031 C 22.285156 14.28125 21.257813 14.050781 20 14.050781 Z M 25 14.050781 L 25 21.636719 C 25 24.574219 26.140625 26.050781 28.480469 26.050781 C 30.6875 26.050781 32 24.609375 32 21.546875 L 32 14.050781 L 30 14.050781 L 30 21.863281 C 30 23.800781 29.375 24.398438 28.484375 24.398438 C 27.683594 24.398438 27 23.785156 27 21.863281 L 27 14.050781 Z M 35.574219 15.425781 C 36.734375 15.425781 37.191406 16.164063 37.191406 17.152344 C 37.191406 18.222656 36.417969 18.996094 35.449219 18.996094 L 35 18.996094 C 35.03125 19.183594 35 15.496094 35 15.496094 C 35.160156 15.445313 35.292969 15.425781 35.574219 15.425781 Z M 20.316406 15.59375 C 21.59375 15.59375 22.054688 16.535156 22.054688 17.652344 C 22.054688 19.015625 21.363281 19.863281 20.125 19.863281 C 19.929688 19.863281 20.140625 19.863281 20 19.828125 L 20 15.683594 C 20.160156 15.628906 20.050781 15.59375 20.316406 15.59375 Z M 35 20.40625 L 35.449219 20.40625 C 36.519531 20.40625 37.488281 21.109375 37.488281 22.5 C 37.488281 23.851563 36.644531 24.539063 35.5 24.539063 C 35.257813 24.539063 35.15625 24.519531 35 24.484375 Z"/></svg>