<svg id="img" xmlns="http://www.w3.org/2000/svg"  viewBox="0 0 50 50" width="50px" height="50px"><path d="M 10.753906 2 C 7.589844 2 5 4.472656 5 7.582031 L 5 42.417969 C 5 45.527344 7.589844 48 10.753906 48 L 45 48 L 45 46 L 10.753906 46 C 8.597656 46 7 44.441406 7 42.417969 C 7 40.394531 8.597656 38.832031 10.753906 38.832031 L 45.046875 38.832031 L 45.046875 2 Z M 10.753906 4 L 43.046875 4 L 43.046875 36.832031 L 10.753906 36.832031 C 9.304688 36.832031 8.015625 37.394531 7 38.253906 L 7 7.582031 C 7 5.558594 8.597656 4 10.753906 4 Z M 24.390625 16.769531 C 22.15625 16.769531 21.0625 19.152344 21.0625 21.914063 C 21.0625 24.6875 21.960938 27.121094 24.257813 27.121094 C 26.179688 27.121094 27.527344 25.574219 27.527344 21.765625 C 27.527344 19.457031 26.835938 16.769531 24.390625 16.769531 Z M 31.007813 16.84375 C 30.152344 16.84375 29.371094 16.90625 28.769531 17.042969 L 28.769531 26.96875 C 29.222656 27.03125 29.851563 27.078125 30.601563 27.078125 C 32.296875 27.078125 33.316406 26.714844 33.917969 26.058594 C 34.398438 25.5625 34.667969 24.917969 34.667969 24.078125 C 34.667969 22.964844 34.039063 21.988281 32.867188 21.660156 L 32.867188 21.601563 C 33.871094 21.167969 34.339844 20.296875 34.339844 19.394531 C 34.339844 18.691406 34.113281 18.015625 33.574219 17.566406 C 32.867188 16.964844 31.953125 16.84375 31.007813 16.84375 Z M 12.363281 16.890625 L 11.628906 27 L 13.324219 27 L 13.488281 23.488281 C 13.546875 22.484375 13.609375 21.210938 13.640625 20.113281 L 13.683594 20.113281 C 13.832031 21.210938 14.105469 22.46875 14.296875 23.28125 L 15.140625 26.835938 L 16.53125 26.835938 L 17.402344 23.21875 C 17.597656 22.441406 17.867188 21.195313 18.046875 20.113281 L 18.09375 20.113281 C 18.0625 21.195313 18.136719 22.5 18.183594 23.460938 L 18.363281 27 L 20.117188 27 L 19.503906 16.890625 L 17.433594 16.890625 L 16.640625 20.550781 C 16.367188 21.824219 16.140625 22.96875 15.992188 24.09375 L 15.964844 24.09375 C 15.78125 22.953125 15.527344 21.824219 15.242188 20.550781 L 14.433594 16.890625 Z M 36.015625 16.890625 L 36.015625 27 L 37.984375 27 L 37.984375 16.890625 Z M 31.246094 18.3125 C 32.054688 18.3125 32.402344 18.882813 32.402344 19.621094 C 32.402344 20.445313 31.859375 21.046875 31.15625 21.046875 L 30.734375 21.046875 L 30.734375 18.375 C 30.855469 18.328125 31.035156 18.3125 31.246094 18.3125 Z M 24.316406 18.480469 C 25.203125 18.480469 25.472656 20.085938 25.472656 21.855469 C 25.472656 23.910156 25.15625 25.410156 24.332031 25.410156 C 23.535156 25.410156 23.105469 24.242188 23.105469 21.945313 C 23.105469 19.769531 23.539063 18.480469 24.316406 18.480469 Z M 30.734375 22.5 L 31.15625 22.5 C 31.9375 22.515625 32.625 23.039063 32.625 24.046875 C 32.625 25.078125 31.96875 25.5625 31.171875 25.5625 C 30.992188 25.5625 30.855469 25.558594 30.734375 25.53125 Z"/></svg>