<svg id="img" xmlns="http://www.w3.org/2000/svg"  viewBox="0 0 50 50" width="50px" height="50px"><path d="M 7 2 L 7 48 L 43 48 L 43 15.410156 L 29.183594 2 Z M 9 4 L 28 4 L 28 17 L 41 17 L 41 46 L 9 46 Z M 30 5.578125 L 39.707031 15 L 30 15 Z M 26.019531 23.324219 C 25.3125 23.324219 24.601563 23.390625 24.078125 23.5 L 24.078125 32.660156 L 25.9375 32.660156 L 25.9375 29.199219 L 26.308594 29.199219 C 27.074219 29.199219 28.039063 28.921875 28.636719 28.3125 C 29.132813 27.789063 29.445313 27.085938 29.445313 26.078125 C 29.445313 25.292969 29.1875 24.519531 28.621094 24.039063 C 27.996094 23.472656 27.128906 23.324219 26.019531 23.324219 Z M 15.363281 23.363281 L 14.671875 32.660156 L 16.277344 32.660156 L 16.433594 29.433594 C 16.488281 28.507813 16.542969 27.335938 16.574219 26.328125 L 16.613281 26.328125 C 16.757813 27.335938 17.011719 28.492188 17.199219 29.238281 L 17.996094 32.507813 L 19.3125 32.507813 L 20.140625 29.183594 C 20.324219 28.464844 20.578125 27.320313 20.75 26.328125 L 20.792969 26.328125 C 20.761719 27.320313 20.832031 28.519531 20.875 29.40625 L 21.046875 32.660156 L 22.710938 32.660156 L 22.128906 23.363281 L 20.167969 23.363281 L 19.414063 26.730469 C 19.160156 27.902344 18.945313 28.949219 18.804688 29.984375 L 18.777344 29.984375 C 18.605469 28.933594 18.363281 27.902344 18.09375 26.730469 L 17.328125 23.363281 Z M 32.304688 23.582031 C 31.539063 23.582031 30.785156 23.820313 30.402344 24.050781 L 30.640625 25.421875 C 30.984375 25.214844 31.394531 25.0625 31.808594 25.0625 C 32.460938 25.0625 32.886719 25.449219 32.886719 26.09375 C 32.886719 26.964844 32.007813 27.238281 31.324219 27.253906 L 31.140625 27.253906 L 31.140625 28.578125 L 31.394531 28.578125 C 32.34375 28.578125 33.125 29.003906 33.125 30 C 33.125 30.757813 32.628906 31.296875 31.734375 31.296875 C 31.238281 31.296875 30.726563 31.15625 30.359375 30.949219 L 30.089844 32.371094 C 30.5 32.59375 31.152344 32.769531 31.90625 32.769531 C 33.910156 32.769531 34.988281 31.433594 34.988281 30.066406 C 34.988281 28.855469 34.308594 28.082031 33.410156 27.792969 L 33.410156 27.765625 C 34.222656 27.390625 34.734375 26.644531 34.734375 25.75 C 34.734375 24.605469 33.921875 23.582031 32.304688 23.582031 Z M 26.390625 24.78125 C 27.257813 24.78125 27.597656 25.417969 27.597656 26.234375 C 27.597656 27.101563 27.171875 27.75 26.234375 27.75 C 26.121094 27.75 26.023438 27.75 25.9375 27.722656 L 25.9375 24.855469 C 26.050781 24.8125 26.21875 24.78125 26.390625 24.78125 Z"/></svg>