<svg id="img" xmlns="http://www.w3.org/2000/svg"  viewBox="0 0 50 50" width="50px" height="50px"><path d="M 7 2 L 7 48 L 43 48 L 43 15.410156 L 29.183594 2 Z M 9 4 L 28 4 L 28 17 L 41 17 L 41 46 L 9 46 Z M 30 5.578125 L 39.707031 15 L 30 15 Z M 18.015625 23.4375 C 15.78125 23.4375 14.6875 25.820313 14.6875 28.578125 C 14.6875 31.355469 15.585938 33.785156 17.882813 33.785156 C 19.804688 33.785156 21.152344 32.238281 21.152344 28.429688 C 21.152344 26.121094 20.464844 23.4375 18.015625 23.4375 Z M 26.191406 23.464844 C 24.046875 23.464844 21.949219 24.996094 21.902344 28.671875 C 21.875 30.410156 22.335938 31.910156 23.207031 32.75 C 23.882813 33.425781 24.753906 33.753906 25.90625 33.753906 C 26.640625 33.753906 27.570313 33.574219 28.007813 33.394531 L 28.007813 27.996094 L 25.292969 27.996094 L 25.292969 29.597656 L 26.191406 29.597656 L 26.191406 32.046875 C 26.117188 32.074219 25.984375 32.089844 25.800781 32.089844 C 24.886719 32.089844 23.941406 31.21875 23.941406 28.789063 C 23.941406 26.148438 25.007813 25.234375 26.34375 25.234375 C 26.835938 25.234375 27.210938 25.3125 27.496094 25.460938 L 27.84375 23.765625 C 27.527344 23.617188 26.957031 23.464844 26.191406 23.464844 Z M 33.269531 23.464844 C 31.125 23.464844 29.027344 24.996094 28.984375 28.671875 C 28.953125 30.410156 29.417969 31.910156 30.285156 32.75 C 30.960938 33.425781 31.832031 33.753906 32.984375 33.753906 C 33.722656 33.753906 34.652344 33.574219 35.089844 33.394531 L 35.089844 27.996094 L 32.371094 27.996094 L 32.371094 29.597656 L 33.269531 29.597656 L 33.269531 32.046875 C 33.195313 32.074219 33.0625 32.089844 32.878906 32.089844 C 31.964844 32.089844 31.019531 31.21875 31.019531 28.789063 C 31.019531 26.148438 32.085938 25.234375 33.421875 25.234375 C 33.917969 25.234375 34.292969 25.3125 34.578125 25.460938 L 34.921875 23.765625 C 34.609375 23.617188 34.035156 23.464844 33.269531 23.464844 Z M 17.941406 25.144531 C 18.828125 25.144531 19.097656 26.75 19.097656 28.519531 C 19.097656 30.574219 18.78125 32.074219 17.957031 32.074219 C 17.164063 32.074219 16.730469 30.90625 16.730469 28.609375 C 16.730469 26.433594 17.164063 25.144531 17.941406 25.144531 Z"/></svg>