<svg id="img" xmlns="http://www.w3.org/2000/svg"  viewBox="0 0 50 50" width="50px" height="50px"><path d="M 7 2 L 7 48 L 43 48 L 43 15.410156 L 29.183594 2 Z M 9 4 L 28 4 L 28 17 L 41 17 L 41 46 L 9 46 Z M 30 5.578125 L 39.707031 15 L 30 15 Z M 31.269531 23 C 30.488281 23 29.65625 23.058594 29 23.191406 L 29 33 L 31 33 L 31 28.863281 L 31.304688 28.863281 C 32.261719 28.863281 32.703125 29.277344 32.933594 30.578125 C 33.128906 31.742188 33.394531 32.71875 33.535156 33 L 35.503906 33 C 35.3125 32.65625 35.027344 31.597656 34.78125 30.386719 C 34.53125 29.203125 34.105469 28.539063 33.253906 28.285156 L 33.253906 28.261719 C 34.460938 27.800781 35.132813 26.898438 35.132813 25.75 C 35.132813 24.921875 34.902344 24.257813 34.230469 23.722656 C 33.539063 23.175781 32.511719 23 31.269531 23 Z M 15 23.046875 L 15 24.664063 L 17 24.664063 L 17 33 L 19 33 L 19 24.664063 L 21 24.664063 L 21 23.046875 Z M 23.320313 23.046875 L 20.660156 33 L 22.503906 33 L 23.140625 30.414063 L 25.515625 30.414063 L 26.15625 33 L 28 33 L 25.535156 23.046875 Z M 31.515625 24.242188 C 32.738281 24.257813 33.21875 24.921875 33.21875 25.894531 C 33.21875 26.914063 32.511719 27.652344 31.375 27.652344 L 31 27.652344 L 31 24.300781 C 31.15625 24.257813 31.269531 24.242188 31.515625 24.242188 Z M 24.328125 25 L 24.386719 25 C 24.507813 25.695313 25.324219 29 25.324219 29 L 23.355469 29 C 23.355469 29 24.207031 25.695313 24.328125 25 Z"/></svg>