<svg id="img" xmlns="http://www.w3.org/2000/svg"  viewBox="0 0 50 50" width="50px" height="50px"><path d="M 7 2 L 7 48 L 43 48 L 43 15.410156 L 29.183594 2 Z M 9 4 L 28 4 L 28 17 L 41 17 L 41 46 L 9 46 Z M 30 5.578125 L 39.707031 15 L 30 15 Z M 13.554688 23.890625 L 15.28125 34 L 17.230469 34 L 17.90625 30.703125 C 18.113281 29.710938 18.28125 28.585938 18.460938 27.371094 L 18.488281 27.371094 C 18.625 28.601563 18.773438 29.753906 18.9375 30.6875 L 19.539063 34 L 21.5625 34 L 23.347656 23.890625 L 21.429688 23.890625 L 20.9375 27.894531 C 20.800781 29.066406 20.679688 30.144531 20.546875 31.464844 L 20.515625 31.464844 C 20.394531 30.144531 20.214844 29.019531 20.035156 27.878906 L 19.359375 23.890625 L 17.769531 23.890625 L 17.050781 27.910156 C 16.839844 29.125 16.617188 30.21875 16.480469 31.464844 L 16.4375 31.464844 C 16.316406 30.234375 16.226563 29.082031 16.089844 27.925781 L 15.59375 23.890625 Z M 25.613281 23.890625 L 23.425781 34 L 25.328125 34 L 25.78125 31.6875 L 27.59375 31.6875 L 28.03125 34 L 29.9375 34 L 27.96875 23.890625 Z M 29.875 23.890625 L 32.140625 34 L 34.34375 34 L 36.65625 23.890625 L 34.496094 23.890625 L 33.804688 28.210938 C 33.625 29.351563 33.460938 30.566406 33.324219 31.765625 L 33.296875 31.765625 C 33.160156 30.582031 32.949219 29.335938 32.769531 28.253906 L 32.050781 23.890625 Z M 26.710938 25.75 L 26.753906 25.75 C 26.847656 26.425781 26.980469 27.429688 27.085938 28.046875 L 27.414063 30.160156 L 25.972656 30.160156 L 26.347656 28.0625 C 26.453125 27.476563 26.605469 26.425781 26.710938 25.75 Z"/></svg>