<svg id="img" xmlns="http://www.w3.org/2000/svg"  viewBox="0 0 50 50" width="50px" height="50px"><path d="M 7 2 L 7 48 L 43 48 L 43 15.410156 L 29.183594 2 Z M 9 4 L 28 4 L 28 17 L 41 17 L 41 46 L 9 46 Z M 30 5.578125 L 39.707031 15 L 30 15 Z M 30.21875 22.769531 C 29.382813 22.769531 28.605469 22.859375 28 23 L 28 33 L 30 33 L 30 30.109375 C 30.175781 30.125 30.214844 30.125 30.410156 30.125 C 31.421875 30.125 32.574219 29.71875 33.28125 28.886719 C 33.832031 28.246094 34.171875 27.429688 34.171875 26.226563 C 34.171875 25.199219 33.851563 24.277344 33.214844 23.671875 C 32.503906 23 31.476563 22.769531 30.21875 22.769531 Z M 16 23 L 16 24.648438 L 19.875 24.648438 L 19.875 24.683594 L 16 31.882813 L 16 33 L 22 33 L 22 31.351563 L 18.25 31.351563 L 18.25 31.296875 L 22 24.363281 L 22 23 Z M 24 23 L 24 33 L 26 33 L 26.003906 23 Z M 30.535156 24.3125 C 31.8125 24.3125 32.273438 25.25 32.273438 26.367188 C 32.273438 27.734375 31.582031 28.582031 30.34375 28.582031 C 30.148438 28.582031 30.140625 28.582031 30 28.546875 L 30 24.402344 C 30.160156 24.347656 30.269531 24.3125 30.535156 24.3125 Z"/></svg>